{"title":"Foxcatcher.2014.BRRip.480p.x264.AAC-VYTO [P2PDL]","uid":12187629,"size":507366940,"categoryP":"video","categoryS":"movies","magnet":"?xt=urn:btih:3f3ba9de6310683c7a11dccb8a75d2cbd1e29dc2&amp;dn=Foxcatcher.2014.BRRip.480p.x264.AAC-VYTO+%5BP2PDL%5D&amp;tr=udp%3A%2F%2Ftracker.openbittorrent.com%3A80&amp;tr=udp%3A%2F%2Fopen.demonii.com%3A1337&amp;tr=udp%3A%2F%2Ftracker.coppersurfer.tk%3A6969&amp;tr=udp%3A%2F%2Fexodus.desync.com%3A6969","seeders":31,"leechers":14,"uploader":"ValidusVyto","files":7,"time":1438599687,"description":"____    ____ ____    ____ .___________.  ______   \n     /   /      /   / |           | /  __    \n    /   /      /   /  `---|  |----`|  |  |  | \n        /     _    _/       |  |     |  |  |  | \n       /        |  |         |  |     |  `--'  | \n    __/         |__|         |__|      ______/  \n                                                  \nPresenting Small Encodes with quality for years!\n                                                                                                   \n                                                                                                   \n\nFoxcatcher.2014.BRRip.480p.x264.AAC-VYTO\n\n\nGenre: Biography, Drama, Sport &lt;a href=&quot;\nhttp://www.imdb.com/title/tt1100089/&quot; rel=&quot;nofollow&quot; target=&quot;_NEW&quot;&gt;\nhttp://www.imdb.com/title/tt1100089/&lt;/a&gt;\n\n\nGeneral\nFormat                         : MPEG-4\nFile size                      : 477 MiB\nDuration                       : 2h 14mn\nOverall bit rate               : 496 Kbps\n\nVideo\nFormat                         : AVC\nBit rate                       : 445 Kbps\nWidth                          : 720 pixels\nHeight                         : 384 pixels\nDisplay aspect ratio           : 1.85:1\nFrame rate mode                : Constant\nFrame rate                     : 23.976 fps\nBit depth                      : 8 bits\nStream size                    : 428 MiB (90%)\nWriting library                : x264 core 144 r2525kMod 40bb568\nAudio\nFormat                         : AAC\nBit rate mode                  : Variable\nBit rate                       : 48.0 Kbps\nChannel(s)                     : 2 channels\nChannel positions              : Front: L R\nSampling rate                  : 48.0 KHz\nStream size                    : 46.1 MiB (10%)\nLanguage                       : English\n\nSubtitle                       : Yes\n\n\nScreenshots:\n &lt;a href=&quot;\nhttp://ititli.com/gr&quot; rel=&quot;nofollow&quot; target=&quot;_NEW&quot;&gt;\nhttp://ititli.com/gr&lt;/a&gt; &lt;a href=&quot;\nhttp://ititli.com/g1&quot; rel=&quot;nofollow&quot; target=&quot;_NEW&quot;&gt;\nhttp://ititli.com/g1&lt;/a&gt; &lt;a href=&quot;\nhttp://ititli.com/gT&quot; rel=&quot;nofollow&quot; target=&quot;_NEW&quot;&gt;\nhttp://ititli.com/gT&lt;/a&gt; &lt;a href=&quot;\nhttp://ititli.com/gW&quot; rel=&quot;nofollow&quot; target=&quot;_NEW&quot;&gt;\nhttp://ititli.com/gW&lt;/a&gt; &lt;a href=&quot;\nhttp://ititli.com/gg&quot; rel=&quot;nofollow&quot; target=&quot;_NEW&quot;&gt;\nhttp://ititli.com/gg&lt;/a&gt; &lt;a href=&quot;\nhttp://ititli.com/gn&quot; rel=&quot;nofollow&quot; target=&quot;_NEW&quot;&gt;\nhttp://ititli.com/gn&lt;/a&gt; &lt;a href=&quot;\nhttp://ititli.com/gw&quot; rel=&quot;nofollow&quot; target=&quot;_NEW&quot;&gt;\nhttp://ititli.com/gw&lt;/a&gt; &lt;a href=&quot;\nhttp://ititli.com/g2&quot; rel=&quot;nofollow&quot; target=&quot;_NEW&quot;&gt;\nhttp://ititli.com/g2&lt;/a&gt; &lt;a href=&quot;\nhttp://ititli.com/g6&quot; rel=&quot;nofollow&quot; target=&quot;_NEW&quot;&gt;\nhttp://ititli.com/g6&lt;/a&gt; &lt;a href=&quot;\nhttp://ititli.com/g8&quot; rel=&quot;nofollow&quot; target=&quot;_NEW&quot;&gt;\nhttp://ititli.com/g8&lt;/a&gt; &lt;a href=&quot;\nhttp://ititli.com/ge&quot; rel=&quot;nofollow&quot; target=&quot;_NEW&quot;&gt;\nhttp://ititli.com/ge&lt;/a&gt; &lt;a href=&quot;\nhttp://ititli.com/gj&quot; rel=&quot;nofollow&quot; target=&quot;_NEW&quot;&gt;\nhttp://ititli.com/gj&lt;/a&gt;\n\n----------------------------------------------------------------------------------------------------\n\n\nEncoder Notes: Looking For Early Access To Anything You Can Provide DVDScr, R5, DVDR, BluRay, Direct\nAudio, Music Releases and Seedboxes. If You Got anything to offer please contact us.\n\nSupport us by donating BC - 1FgwdzPsd1y25Gea8wP1qni35uGCtmkRCD","torrent":{"xt":"urn:btih:3f3ba9de6310683c7a11dccb8a75d2cbd1e29dc2","amp;dn":"Foxcatcher.2014.BRRip.480p.x264.AAC-VYTO+%5BP2PDL%5D","amp;tr":["udp%3A%2F%2Ftracker.openbittorrent.com%3A80","udp%3A%2F%2Fopen.demonii.com%3A1337","udp%3A%2F%2Ftracker.coppersurfer.tk%3A6969","udp%3A%2F%2Fexodus.desync.com%3A6969"],"infoHash":"3f3ba9de6310683c7a11dccb8a75d2cbd1e29dc2","infoHashBuffer":{"type":"Buffer","data":[63,59,169,222,99,16,104,60,122,17,220,203,138,117,210,203,209,226,157,194]},"announce":[],"urlList":[]}}